<svg width="19" height="19" viewBox="0 0 19 19" fill="none" xmlns="http://www.w3.org/2000/svg">
<path d="M7.29834 12.3496L14.935 4.71301C15.1152 4.5328 15.3254 4.44269 15.5657 4.44269C15.806 4.44269 16.0162 4.5328 16.1965 4.71301C16.3767 4.89323 16.4668 5.10723 16.4668 5.35503C16.4668 5.60282 16.3767 5.81683 16.1965 5.99704L7.92909 14.2869C7.74887 14.4672 7.53862 14.5573 7.29834 14.5573C7.05805 14.5573 6.8478 14.4672 6.66758 14.2869L2.79296 10.4123C2.61274 10.2321 2.52639 10.0181 2.5339 9.7703C2.54141 9.5225 2.63527 9.3085 2.81548 9.12828C2.9957 8.94807 3.2097 8.85796 3.4575 8.85796C3.7053 8.85796 3.9193 8.94807 4.09952 9.12828L7.29834 12.3496Z" fill="#10310B"/>
</svg>
