<svg width="51" height="48" viewBox="0 0 51 48" fill="none" xmlns="http://www.w3.org/2000/svg">
<path d="M50.1277 20.931C50.0874 21.6676 49.9663 22.3991 49.7545 23.1101C49.3106 24.573 48.4632 25.9182 47.2829 26.8696C45.6638 28.1842 43.4141 28.6344 41.3864 28.3735C39.4445 28.128 37.6992 26.6599 36.5088 25.151C36.3424 24.9413 35.9994 24.9617 35.8077 25.1101C35.6009 25.2737 35.5353 25.5704 35.6715 25.8057C36.4332 27.1152 37.5428 28.1586 38.8694 28.8594C39.853 29.376 40.9627 29.6829 42.0724 29.7904C42.0623 30.0308 42.0623 30.2763 42.0522 30.5218C42.027 31.1459 42.032 31.7699 42.027 32.3939C42.0169 33.6574 42.0068 34.9208 42.0068 36.1791C42.0068 38.6906 42.0068 41.2021 41.9967 43.7136V47.3402C41.9362 47.3556 41.8757 47.3709 41.8152 47.3863C41.6235 47.4272 41.4318 47.4681 41.2401 47.509C41.0636 47.5397 40.8921 47.5704 40.7155 47.6011C40.6399 47.6113 40.5592 47.6216 40.4835 47.6318C40.4835 47.6318 40.4768 47.6335 40.4633 47.6369C40.4079 47.642 40.3524 47.6523 40.2918 47.6625C39.0258 47.8722 37.7295 47.8722 36.4584 47.7341C35.268 47.6011 34.0019 47.4937 32.8721 47.0794C31.9288 46.7315 31.1117 46.0154 30.5669 45.1714C29.9768 44.2507 29.654 43.0794 29.8002 41.9796C29.8406 41.6471 30.0373 40.4553 30.9856 39.509C31.1974 39.2942 32.1608 38.5883 33.4723 38.2763C34.3096 38.0819 35.1721 38.041 36.0145 37.8824C36.1456 37.8569 36.3121 37.7801 36.2869 37.6471C36.2667 37.5397 36.1356 37.5039 36.0296 37.4937C35.7522 37.4681 35.4798 37.4528 35.2024 37.4528C35.0662 37.4477 34.93 37.4528 34.7938 37.4528H34.7737C34.5164 37.4067 34.2592 37.376 34.0019 37.3505C33.5026 37.2891 33.0082 37.2072 32.519 37.0794C31.7876 36.885 31.0814 36.5934 30.4711 36.1331C29.886 35.6881 29.4471 35.1101 29.1496 34.4349C29.0083 34.1075 28.8923 33.775 28.8066 33.4374C28.7259 32.9617 28.6502 32.4349 28.5846 31.8415C28.5796 31.8313 28.5796 31.8211 28.5796 31.8057C28.5644 31.6165 28.5594 31.4221 28.5544 31.2277C28.5493 30.9157 28.5897 30.5781 28.5039 30.2763C28.4837 30.1689 28.4484 30.0717 28.3879 29.9643C28.2971 29.8211 28.0853 29.8159 27.9945 29.9643C27.7927 30.3121 27.8633 30.7418 27.8532 31.1254C27.8431 31.5141 27.823 31.8978 27.7826 32.2865C27.712 33.0026 27.5455 33.6727 27.258 34.3326C26.9655 35.0078 26.5216 35.5858 25.9365 36.0257C25.3262 36.486 24.62 36.7827 23.8886 36.9771C23.3993 37.1049 22.905 37.1868 22.4057 37.243C22.1484 37.2737 21.8912 37.3044 21.639 37.3454C21.3969 37.3863 21.1497 37.4016 20.9227 37.4988C20.8622 37.5244 20.842 37.5806 20.842 37.642C20.8168 37.775 20.9832 37.8517 21.1144 37.8773C21.9567 38.0359 22.8243 38.0768 23.6566 38.2712C24.9176 38.573 25.8608 39.2226 26.1433 39.5039C27.944 41.2737 27.8532 44.3786 25.8306 45.9234C24.8621 46.665 23.7423 47.1254 22.5772 47.4477C21.9971 47.6113 20.731 47.908 19.0362 47.995H16.9026C16.1006 47.9592 15.2986 47.8569 14.542 47.5806C14.6782 47.0538 14.7488 46.486 14.7942 45.9131C14.8446 45.3147 14.8598 44.7111 14.89 44.1484C14.9506 42.9668 15.001 41.7904 15.0414 40.6139C15.117 38.128 15.1372 35.6369 15.1019 33.151C15.0867 31.8927 15.0817 30.6292 14.9405 29.376C15.9846 29.0026 16.9984 28.4604 17.8004 27.6829C18.0123 27.4783 18.1384 27.284 18.3402 27.018C18.5016 26.8134 18.6378 26.5832 18.7739 26.353C18.9202 26.0922 18.5873 25.8569 18.3755 26.041C18.1838 26.2098 17.982 26.3735 17.7752 26.5167C17.6743 26.5883 17.5735 26.6548 17.4726 26.7213L17.4524 26.7315C17.4524 26.7315 17.4726 26.7264 17.4776 26.7264C17.4726 26.7315 17.4524 26.7418 17.4171 26.752C17.407 26.7571 17.2809 26.8441 17.2658 26.8543C17.2456 26.8645 17.2254 26.8799 17.2204 26.885C17.1901 26.9055 17.1548 26.931 17.1195 26.9515C16.6857 27.2482 16.2317 27.5295 15.7626 27.7648C15.6517 27.8211 15.5357 27.8722 15.4197 27.9285L15.3642 27.9489C15.3642 27.9489 15.3339 27.9643 15.3289 27.9694C15.2582 27.995 15.1876 28.0257 15.117 28.0512C14.8648 28.1484 14.6076 28.2354 14.3503 28.307C14.0981 28.3786 13.8459 28.44 13.5887 28.4911C13.4575 28.5167 13.3213 28.5423 13.1902 28.5627C13.165 28.5627 13.1397 28.5627 13.1145 28.573C13.0439 28.5781 12.9733 28.5883 12.9027 28.5985C12.363 28.6548 11.8232 28.6702 11.2835 28.6395C11.1574 28.6344 11.0313 28.6241 10.9052 28.6088C10.8447 28.6037 10.7892 28.5985 10.7287 28.5934C10.6934 28.5883 10.6631 28.5832 10.6228 28.5781H10.6026C10.3353 28.5321 10.0629 28.4809 9.79554 28.4195C9.24574 28.2916 8.70603 28.1126 8.1764 27.8978C8.15118 27.8876 8.13101 27.8773 8.10579 27.8671C8.0957 27.862 8.08561 27.8569 8.07552 27.8569C8.07048 27.8569 8.06544 27.8517 8.05535 27.8517C8.00995 27.8313 7.96455 27.8057 7.9242 27.7904C7.7981 27.729 7.66695 27.6676 7.54085 27.6062C7.28865 27.4783 7.03645 27.3402 6.79434 27.1919C6.54718 27.0487 6.30506 26.8901 6.07304 26.7264C5.96207 26.6497 5.8511 26.573 5.74013 26.4911C5.71491 26.4707 5.68464 26.4502 5.64934 26.4246C5.62916 26.4042 5.52324 26.3274 5.48288 26.2968C5.47784 26.2968 5.46271 26.2814 5.45262 26.2712C5.01379 25.9387 4.60017 25.5551 4.21178 25.1612C3.82339 24.7673 3.42491 24.3223 3.07183 23.862C3.07183 23.8569 3.0567 23.8415 3.04661 23.8313C3.04156 23.8262 3.04156 23.8211 3.03652 23.8159C2.99112 23.7597 2.95077 23.6983 2.90538 23.642C2.81963 23.5193 2.73388 23.4016 2.65317 23.284C2.48672 23.0384 2.33035 22.7929 2.17903 22.5423C1.87639 22.041 1.60401 21.5244 1.35685 20.9873C1.30137 20.8645 1.24588 20.7367 1.1904 20.6139C1.18031 20.5934 1.17527 20.5781 1.17022 20.5576C1.13491 20.4758 1.09961 20.3888 1.0643 20.3019C0.963417 20.041 0.86758 19.7699 0.776787 19.5039C0.595202 18.9413 0.44388 18.3786 0.317779 17.8006C0.262295 17.5244 0.211854 17.243 0.166458 16.9617C0.151326 16.885 0.141238 16.8134 0.131149 16.7418C0.131149 16.7315 0.126105 16.7213 0.126105 16.706C0.126105 16.706 0.126105 16.6855 0.121061 16.665C0.121061 16.6599 0.121061 16.6548 0.116017 16.6344C0.100885 16.4962 0.085753 16.3633 0.0706209 16.2303C-0.0403481 15.064 -0.020172 13.9029 0.116017 12.7367C0.116017 12.7162 0.121061 12.6906 0.126105 12.665C0.136193 12.5985 0.141238 12.5372 0.15637 12.4707C0.176546 12.3172 0.201766 12.1638 0.23203 12.0154C0.282471 11.7392 0.342999 11.4681 0.413616 11.2021C0.539717 10.6753 0.701127 10.1535 0.887756 9.64202C0.933153 9.50903 0.983593 9.38116 1.03403 9.25328C1.05421 9.19701 1.07943 9.14075 1.09961 9.08448C1.10465 9.06913 1.12483 9.02821 1.12987 9.01798C1.13491 9.00775 1.13491 9.00264 1.13491 9.00264C1.24588 8.74688 1.3619 8.49624 1.48295 8.25072C1.72002 7.75967 1.98736 7.28397 2.27487 6.82361C2.42115 6.58832 2.57247 6.36325 2.73388 6.13307C2.80954 6.03077 2.8852 5.92335 2.96086 5.82105C2.99617 5.7699 3.03652 5.72387 3.07183 5.67272C3.092 5.64202 3.11722 5.61133 3.1374 5.58576C3.47535 5.15609 3.82844 4.74688 4.20674 4.35814C4.59009 3.96428 4.99361 3.58576 5.41227 3.23282C5.51315 3.15098 5.61403 3.06913 5.71491 2.99241C5.71491 2.98218 5.73004 2.97706 5.74013 2.96683C5.81075 2.91568 5.87632 2.86453 5.94694 2.81338C6.15879 2.65481 6.38072 2.50136 6.59762 2.35302C7.06671 2.04612 7.55599 1.75967 8.05535 1.50903C8.31259 1.37604 8.57993 1.23282 8.85231 1.13052C8.88257 1.11517 8.92797 1.09982 8.94814 1.09471C9.01371 1.06402 9.08433 1.03844 9.15495 1.00775C9.29618 0.956602 9.43742 0.905451 9.57865 0.8543C10.1436 0.649697 10.7186 0.486014 11.3037 0.353022C11.5862 0.286526 11.8737 0.23026 12.1612 0.184224C12.2873 0.158648 12.4184 0.153533 12.5445 0.122843C12.5395 0.122843 12.5345 0.122843 12.5345 0.127958C12.5748 0.122843 12.6253 0.112612 12.6454 0.107497C12.7312 0.0972672 12.8169 0.087037 12.8976 0.0819219C14.083 -0.0459553 15.2784 -0.0357251 16.4587 0.112612C16.4839 0.112612 16.5041 0.117728 16.5293 0.117728C16.5949 0.127958 16.6554 0.138188 16.716 0.148418C16.8774 0.173994 17.0338 0.199569 17.1901 0.23026C17.4827 0.286526 17.7752 0.347907 18.0678 0.424633C18.6378 0.567855 19.2027 0.746884 19.7525 0.956602C19.8786 1.00775 20.0047 1.0589 20.1358 1.11006C20.156 1.12029 20.1762 1.13052 20.1964 1.14075L20.4234 1.24305C20.6856 1.36069 20.9429 1.49369 21.1951 1.62668C21.7146 1.91312 22.214 2.23026 22.6881 2.5832C22.7436 2.62412 22.7991 2.67016 22.8546 2.71108C22.8697 2.72131 22.8798 2.73154 22.8899 2.74177C23.016 2.83896 23.132 2.94126 23.2531 3.04356C23.475 3.23793 23.6868 3.44254 23.8937 3.65737C24.0904 3.86197 24.282 4.07681 24.4586 4.30187C24.4838 4.33256 24.509 4.36325 24.5292 4.38883C24.5393 4.40417 24.5595 4.42975 24.5746 4.44509C24.5948 4.47578 24.615 4.50136 24.62 4.51159C24.6553 4.55763 24.6856 4.60366 24.7158 4.6497C25.1345 5.17655 25.4825 5.72898 25.765 6.30699C26.0878 6.9566 26.2997 7.6011 26.4661 8.3121C26.5872 8.82361 26.4661 9.90289 27.0462 10.1791C27.369 10.3326 27.5708 9.96428 27.596 9.69318C27.6515 9.06914 27.5809 8.43998 27.5304 7.82617C27.5001 7.47834 27.4497 7.1254 27.3841 6.78269C27.3236 6.47578 27.2025 6.18422 27.1269 5.88243C27.0916 5.74944 27.0462 5.61133 27.0058 5.47834C26.9705 5.38116 26.9403 5.28908 26.8999 5.19701C26.8949 5.19701 26.8949 5.18167 26.8949 5.17655C26.8898 5.17144 26.8898 5.16632 26.8898 5.16121C26.8747 5.11517 26.8545 5.07425 26.8394 5.02821C26.6981 4.6855 26.5468 4.36325 26.3451 4.05123C26.2795 3.94893 26.2038 3.84663 26.1332 3.74433C26.1837 3.7341 26.2391 3.72898 26.2896 3.71875C26.3047 3.71875 26.3451 3.70852 26.3652 3.70852C26.4005 3.70341 26.4308 3.69829 26.4661 3.69318C26.6477 3.67272 26.8242 3.64714 27.0058 3.61645C27.0512 3.61133 27.0966 3.60622 27.142 3.59599C27.1471 3.59599 27.1572 3.59599 27.1672 3.59087C27.2429 3.58064 27.3186 3.57553 27.3892 3.5653C27.7019 3.53461 28.0146 3.51415 28.3274 3.50903C28.6502 3.50392 28.9781 3.51415 29.2958 3.53972C29.4471 3.55507 29.5934 3.5653 29.7397 3.58064C29.8154 3.59087 29.886 3.59599 29.9616 3.60622C29.9919 3.61133 30.0121 3.61133 30.0171 3.61133C30.0474 3.61645 30.0827 3.62668 30.113 3.63179C30.7334 3.72898 31.3437 3.88243 31.9339 4.09727C32.0751 4.14842 32.2113 4.19957 32.3475 4.25584C32.3626 4.26095 32.3777 4.27118 32.3929 4.2763C32.408 4.28141 32.4484 4.30187 32.4635 4.30699C32.5392 4.34279 32.6148 4.3786 32.6905 4.4144C32.9729 4.5474 33.2453 4.69573 33.5127 4.85942C33.7699 5.01287 34.0171 5.17655 34.2541 5.35558C34.3096 5.3965 34.3651 5.43742 34.4206 5.47834C34.4408 5.4988 34.4609 5.50903 34.4811 5.52949C34.6022 5.62668 34.7182 5.72387 34.8291 5.82617C35.273 6.21491 35.6765 6.64458 36.0448 7.11006C36.075 7.14586 36.1154 7.18167 36.1406 7.2277C36.1406 7.23282 36.1507 7.24305 36.1557 7.25328C36.1759 7.27885 36.1961 7.30443 36.2163 7.33512C36.3071 7.45788 36.3978 7.58576 36.4836 7.71364C36.64 7.95405 36.7963 8.20469 36.9325 8.46044C37.0939 8.74688 37.2352 9.03844 37.3663 9.34023C37.3764 9.36581 37.3915 9.39139 37.4016 9.42208C37.4117 9.43742 37.4117 9.44765 37.4167 9.45788C37.442 9.52949 37.4722 9.6011 37.4974 9.67272C37.558 9.82617 37.6135 9.97962 37.6589 10.1331C37.7648 10.4502 37.8505 10.7776 37.9211 11.1049C37.9565 11.2635 37.9867 11.4221 38.0119 11.5858C38.017 11.6113 38.022 11.6369 38.022 11.6676C37.5832 11.8875 37.1545 12.1382 36.7459 12.4093C35.1873 13.4579 33.8758 14.8185 33.1444 16.5832C33.1041 16.6855 33.0637 16.798 33.1041 16.8952C33.1545 17.0333 33.3361 17.0794 33.4723 17.0333C33.6085 16.9822 33.7144 16.8696 33.8102 16.7622C35.6362 14.7622 37.9111 13.1049 40.5188 12.4349C42.0119 12.0512 43.6159 12.0052 45.0736 12.5065C48.4783 13.6778 50.2992 17.4425 50.1277 20.9259V20.931Z" fill="#396039"/>
</svg>
