<svg width="20" height="20" viewBox="0 0 20 20" fill="none" xmlns="http://www.w3.org/2000/svg">
<mask id="mask0_9089_1676" style="mask-type:alpha" maskUnits="userSpaceOnUse" x="0" y="0" width="20" height="20">
<rect width="20" height="20" fill="#D9D9D9"/>
</mask>
<g mask="url(#mask0_9089_1676)">
<path d="M10.0001 16.9372C9.80564 16.9372 9.60772 16.9025 9.40633 16.833C9.20494 16.7636 9.02786 16.6525 8.87508 16.4997L7.43758 15.1872C5.96536 13.84 4.6355 12.5031 3.448 11.1768C2.2605 9.85037 1.66675 8.38856 1.66675 6.79134C1.66675 5.48579 2.10425 4.39551 2.97925 3.52051C3.85425 2.64551 4.94453 2.20801 6.25008 2.20801C6.98619 2.20801 7.68064 2.36426 8.33341 2.67676C8.98619 2.98926 9.54175 3.41634 10.0001 3.95801C10.4584 3.41634 11.014 2.98926 11.6667 2.67676C12.3195 2.36426 13.014 2.20801 13.7501 2.20801C15.0556 2.20801 16.1459 2.64551 17.0209 3.52051C17.8959 4.39551 18.3334 5.48579 18.3334 6.79134C18.3334 8.38856 17.7431 9.85384 16.5626 11.1872C15.382 12.5205 14.0417 13.8608 12.5417 15.208L11.1251 16.4997C10.9723 16.6525 10.7952 16.7636 10.5938 16.833C10.3924 16.9025 10.1945 16.9372 10.0001 16.9372ZM9.20841 5.62468C8.80564 5.05523 8.37508 4.6212 7.91675 4.32259C7.45841 4.02398 6.90286 3.87467 6.25008 3.87467C5.41675 3.87467 4.7223 4.15245 4.16675 4.70801C3.61119 5.26356 3.33341 5.95801 3.33341 6.79134C3.33341 7.51356 3.59036 8.28093 4.10425 9.09343C4.61814 9.90593 5.23272 10.6941 5.948 11.458C6.66328 12.2219 7.39939 12.9372 8.15633 13.6038C8.91328 14.2705 9.52786 14.8191 10.0001 15.2497C10.4723 14.8191 11.0869 14.2705 11.8438 13.6038C12.6008 12.9372 13.3369 12.2219 14.0522 11.458C14.7674 10.6941 15.382 9.90593 15.8959 9.09343C16.4098 8.28093 16.6667 7.51356 16.6667 6.79134C16.6667 5.95801 16.389 5.26356 15.8334 4.70801C15.2779 4.15245 14.5834 3.87467 13.7501 3.87467C13.0973 3.87467 12.5417 4.02398 12.0834 4.32259C11.6251 4.6212 11.1945 5.05523 10.7917 5.62468C10.6945 5.76356 10.5765 5.86773 10.4376 5.93718C10.2987 6.00662 10.1529 6.04134 10.0001 6.04134C9.8473 6.04134 9.70147 6.00662 9.56258 5.93718C9.42369 5.86773 9.30564 5.76356 9.20841 5.62468Z" fill="#10310B"/>
</g>
</svg>
