<svg width="51" height="48" viewBox="0 0 51 48" fill="none" xmlns="http://www.w3.org/2000/svg">
<path d="M50.1278 20.9311C50.0874 21.6676 49.9663 22.3991 49.7545 23.1101C49.3106 24.573 48.4632 25.9183 47.2829 26.8697C45.6638 28.1843 43.4141 28.6344 41.3864 28.3735C39.4445 28.128 37.6992 26.66 36.5088 25.151C36.3424 24.9413 35.9994 24.9618 35.8077 25.1101C35.6009 25.2738 35.5353 25.5705 35.6715 25.8058C36.4332 27.1152 37.5429 28.1587 38.8694 28.8595C39.853 29.3761 40.9627 29.683 42.0724 29.7904C42.0623 30.0308 42.0623 30.2763 42.0522 30.5219C42.027 31.1459 42.0321 31.77 42.027 32.394C42.0169 33.6574 42.0068 34.9208 42.0068 36.1792C42.0068 38.6907 42.0068 41.2022 41.9968 43.7137V47.3403C41.9362 47.3556 41.8757 47.371 41.8152 47.3863C41.6235 47.4272 41.4318 47.4682 41.2401 47.5091C41.0636 47.5398 40.8921 47.5705 40.7156 47.6012C40.6399 47.6114 40.5592 47.6216 40.4835 47.6318C40.4835 47.6318 40.4768 47.6335 40.4634 47.637C40.4079 47.6421 40.3524 47.6523 40.2919 47.6625C39.0258 47.8723 37.7295 47.8723 36.4584 47.7341C35.268 47.6012 34.0019 47.4937 32.8721 47.0794C31.9288 46.7316 31.1117 46.0155 30.5669 45.1715C29.9768 44.2508 29.654 43.0794 29.8002 41.9797C29.8406 41.6472 30.0373 40.4554 30.9856 39.5091C31.1974 39.2942 32.1609 38.5884 33.4723 38.2763C34.3096 38.082 35.1722 38.041 36.0145 37.8825C36.1457 37.8569 36.3121 37.7802 36.2869 37.6472C36.2667 37.5398 36.1356 37.504 36.0296 37.4937C35.7522 37.4682 35.4798 37.4528 35.2024 37.4528C35.0662 37.4477 34.93 37.4528 34.7939 37.4528H34.7737C34.5164 37.4068 34.2592 37.3761 34.0019 37.3505C33.5026 37.2891 33.0083 37.2073 32.519 37.0794C31.7876 36.885 31.0814 36.5935 30.4711 36.1331C29.886 35.6881 29.4472 35.1101 29.1496 34.4349C29.0083 34.1075 28.8923 33.7751 28.8066 33.4375C28.7259 32.9618 28.6502 32.4349 28.5846 31.8416C28.5796 31.8313 28.5796 31.8211 28.5796 31.8058C28.5645 31.6165 28.5594 31.4221 28.5544 31.2278C28.5493 30.9157 28.5897 30.5781 28.5039 30.2763C28.4838 30.1689 28.4484 30.0717 28.3879 29.9643C28.2971 29.8211 28.0853 29.816 27.9945 29.9643C27.7927 30.3122 27.8633 30.7418 27.8532 31.1254C27.8432 31.5142 27.823 31.8978 27.7826 32.2866C27.712 33.0027 27.5456 33.6728 27.258 34.3326C26.9655 35.0078 26.5216 35.5858 25.9365 36.0257C25.3262 36.4861 24.62 36.7827 23.8886 36.9771C23.3994 37.105 22.905 37.1868 22.4057 37.2431C22.1484 37.2738 21.8912 37.3045 21.639 37.3454C21.3969 37.3863 21.1497 37.4017 20.9227 37.4988C20.8622 37.5244 20.842 37.5807 20.842 37.6421C20.8168 37.7751 20.9833 37.8518 21.1144 37.8774C21.9568 38.0359 22.8243 38.0769 23.6566 38.2712C24.9176 38.573 25.8608 39.2226 26.1433 39.504C27.944 41.2738 27.8532 44.3786 25.8306 45.9234C24.8621 46.6651 23.7423 47.1255 22.5772 47.4477C21.9971 47.6114 20.7311 47.9081 19.0363 47.995H16.9026C16.1006 47.9592 15.2986 47.8569 14.542 47.5807C14.6782 47.0538 14.7488 46.4861 14.7942 45.9132C14.8446 45.3147 14.8598 44.7111 14.89 44.1485C14.9506 42.9669 15.001 41.7904 15.0414 40.6139C15.117 38.128 15.1372 35.637 15.1019 33.151C15.0868 31.8927 15.0817 30.6293 14.9405 29.3761C15.9846 29.0027 16.9985 28.4605 17.8005 27.683C18.0123 27.4784 18.1384 27.284 18.3402 27.018C18.5016 26.8134 18.6378 26.5833 18.774 26.3531C18.9202 26.0922 18.5873 25.8569 18.3755 26.041C18.1838 26.2098 17.982 26.3735 17.7752 26.5168C17.6744 26.5884 17.5735 26.6549 17.4726 26.7214L17.4524 26.7316C17.4524 26.7316 17.4726 26.7265 17.4776 26.7265C17.4726 26.7316 17.4524 26.7418 17.4171 26.752C17.407 26.7572 17.2809 26.8441 17.2658 26.8543C17.2456 26.8646 17.2254 26.8799 17.2204 26.885C17.1901 26.9055 17.1548 26.9311 17.1195 26.9515C16.6857 27.2482 16.2318 27.5295 15.7627 27.7648C15.6517 27.8211 15.5357 27.8723 15.4197 27.9285L15.3642 27.949C15.3642 27.949 15.3339 27.9643 15.3289 27.9694C15.2583 27.995 15.1876 28.0257 15.117 28.0513C14.8648 28.1485 14.6076 28.2354 14.3503 28.307C14.0981 28.3786 13.8459 28.44 13.5887 28.4912C13.4575 28.5168 13.3213 28.5423 13.1902 28.5628C13.165 28.5628 13.1398 28.5628 13.1145 28.573C13.0439 28.5781 12.9733 28.5884 12.9027 28.5986C12.363 28.6549 11.8233 28.6702 11.2836 28.6395C11.1575 28.6344 11.0313 28.6242 10.9052 28.6088C10.8447 28.6037 10.7892 28.5986 10.7287 28.5935C10.6934 28.5884 10.6631 28.5832 10.6228 28.5781H10.6026C10.3353 28.5321 10.0629 28.4809 9.79556 28.4196C9.24576 28.2917 8.70604 28.1127 8.17642 27.8978C8.1512 27.8876 8.13102 27.8774 8.1058 27.8671C8.09571 27.862 8.08563 27.8569 8.07554 27.8569C8.07049 27.8569 8.06545 27.8518 8.05536 27.8518C8.00997 27.8313 7.96457 27.8058 7.92422 27.7904C7.79812 27.729 7.66697 27.6676 7.54087 27.6063C7.28867 27.4784 7.03646 27.3403 6.79435 27.1919C6.54719 27.0487 6.30508 26.8902 6.07305 26.7265C5.96208 26.6497 5.85111 26.573 5.74014 26.4912C5.71492 26.4707 5.68466 26.4503 5.64935 26.4247C5.62918 26.4042 5.52325 26.3275 5.4829 26.2968C5.47785 26.2968 5.46272 26.2815 5.45263 26.2712C5.0138 25.9387 4.60019 25.5551 4.2118 25.1613C3.82341 24.7674 3.42493 24.3224 3.07184 23.862C3.07184 23.8569 3.05671 23.8416 3.04662 23.8313C3.04158 23.8262 3.04158 23.8211 3.03654 23.816C2.99114 23.7597 2.95079 23.6983 2.90539 23.6421C2.81964 23.5193 2.73389 23.4017 2.65319 23.284C2.48673 23.0385 2.33037 22.793 2.17905 22.5423C1.8764 22.041 1.60403 21.5244 1.35687 20.9873C1.30138 20.8646 1.2459 20.7367 1.19041 20.6139C1.18033 20.5935 1.17528 20.5781 1.17024 20.5577C1.13493 20.4758 1.09962 20.3889 1.06431 20.3019C0.963432 20.041 0.867595 19.7699 0.776803 19.504C0.595217 18.9413 0.443896 18.3786 0.317794 17.8006C0.26231 17.5244 0.211869 17.2431 0.166473 16.9618C0.151341 16.885 0.141253 16.8134 0.131165 16.7418C0.131165 16.7316 0.126121 16.7214 0.126121 16.706C0.126121 16.706 0.126121 16.6856 0.121077 16.6651C0.121077 16.66 0.121077 16.6549 0.116033 16.6344C0.1009 16.4963 0.0857683 16.3633 0.0706361 16.2303C-0.0403329 15.0641 -0.0201567 13.9029 0.116033 12.7367C0.116033 12.7162 0.121077 12.6907 0.126121 12.6651C0.136209 12.5986 0.141253 12.5372 0.156385 12.4707C0.176561 12.3173 0.201781 12.1638 0.232046 12.0155C0.282486 11.7393 0.343015 11.4682 0.413631 11.2022C0.539732 10.6753 0.701142 10.1536 0.887772 9.64207C0.933168 9.50908 0.983609 9.3812 1.03405 9.25332C1.05423 9.19706 1.07945 9.14079 1.09962 9.08453C1.10467 9.06918 1.12484 9.02826 1.12989 9.01803C1.13493 9.0078 1.13493 9.00268 1.13493 9.00268C1.2459 8.74693 1.36191 8.49629 1.48297 8.25077C1.72004 7.75972 1.98737 7.28401 2.27488 6.82366C2.42116 6.58836 2.57248 6.3633 2.73389 6.13312C2.80955 6.03082 2.88521 5.9234 2.96087 5.8211C2.99618 5.76995 3.03654 5.72391 3.07184 5.67276C3.09202 5.64207 3.11724 5.61138 3.13742 5.5858C3.47537 5.15614 3.82845 4.74693 4.20675 4.35818C4.5901 3.96432 4.99363 3.5858 5.41228 3.23286C5.51316 3.15102 5.61404 3.06918 5.71492 2.99245C5.71492 2.98222 5.73006 2.97711 5.74014 2.96688C5.81076 2.91573 5.87633 2.86458 5.94695 2.81343C6.1588 2.65486 6.38074 2.50141 6.59763 2.35307C7.06673 2.04616 7.556 1.75972 8.05536 1.50908C8.31261 1.37609 8.57994 1.23286 8.85232 1.13056C8.88258 1.11522 8.92798 1.09987 8.94816 1.09476C9.01373 1.06406 9.08435 1.03849 9.15496 1.0078C9.2962 0.956648 9.43743 0.905497 9.57866 0.854346C10.1436 0.649743 10.7186 0.48606 11.3037 0.353067C11.5862 0.286571 11.8737 0.230305 12.1612 0.18427C12.2873 0.158694 12.4185 0.153579 12.5446 0.122888C12.5395 0.122888 12.5345 0.122888 12.5345 0.128004C12.5748 0.122888 12.6253 0.112658 12.6454 0.107543C12.7312 0.097313 12.8169 0.0870828 12.8976 0.0819677C14.083 -0.0459095 15.2784 -0.0356794 16.4587 0.112658C16.484 0.112658 16.5041 0.117773 16.5294 0.117773C16.5949 0.128004 16.6555 0.138234 16.716 0.148464C16.8774 0.174039 17.0338 0.199615 17.1901 0.230305C17.4827 0.286571 17.7752 0.347952 18.0678 0.424679C18.6378 0.567901 19.2027 0.746929 19.7525 0.956648C19.8786 1.0078 20.0047 1.05895 20.1359 1.1101C20.156 1.12033 20.1762 1.13056 20.1964 1.14079L20.4234 1.24309C20.6857 1.36074 20.9429 1.49373 21.1951 1.62672C21.7146 1.91317 22.214 2.23031 22.6881 2.58325C22.7436 2.62417 22.7991 2.6702 22.8546 2.71112C22.8697 2.72135 22.8798 2.73158 22.8899 2.74181C23.016 2.839 23.132 2.9413 23.2531 3.0436C23.475 3.23798 23.6869 3.44258 23.8937 3.65742C24.0904 3.86202 24.2821 4.07685 24.4586 4.30192C24.4838 4.33261 24.509 4.3633 24.5292 4.38887C24.5393 4.40422 24.5595 4.42979 24.5746 4.44514C24.5948 4.47583 24.615 4.50141 24.62 4.51164C24.6553 4.55767 24.6856 4.60371 24.7158 4.64974C25.1345 5.1766 25.4825 5.72903 25.765 6.30703C26.0878 6.95665 26.2997 7.60115 26.4661 8.31215C26.5872 8.82366 26.4661 9.90294 27.0462 10.1792C27.369 10.3326 27.5708 9.96432 27.596 9.69322C27.6515 9.06918 27.5809 8.44002 27.5304 7.82621C27.5002 7.47839 27.4497 7.12545 27.3841 6.78274C27.3236 6.47583 27.2026 6.18427 27.1269 5.88248C27.0916 5.74949 27.0462 5.61138 27.0058 5.47839C26.9705 5.3812 26.9403 5.28913 26.8999 5.19706C26.8949 5.19706 26.8949 5.18171 26.8949 5.1766C26.8898 5.17148 26.8898 5.16637 26.8898 5.16125C26.8747 5.11522 26.8545 5.0743 26.8394 5.02826C26.6982 4.68555 26.5468 4.3633 26.3451 4.05128C26.2795 3.94898 26.2038 3.84667 26.1332 3.74437C26.1837 3.73414 26.2392 3.72903 26.2896 3.7188C26.3047 3.7188 26.3451 3.70857 26.3653 3.70857C26.4006 3.70345 26.4308 3.69834 26.4661 3.69322C26.6477 3.67276 26.8243 3.64719 27.0058 3.6165C27.0512 3.61138 27.0966 3.60626 27.142 3.59603C27.1471 3.59603 27.1572 3.59603 27.1673 3.59092C27.2429 3.58069 27.3186 3.57557 27.3892 3.56534C27.7019 3.53465 28.0147 3.51419 28.3274 3.50908C28.6502 3.50396 28.9781 3.51419 29.2958 3.53977C29.4472 3.55511 29.5934 3.56534 29.7397 3.58069C29.8154 3.59092 29.886 3.59603 29.9617 3.60626C29.9919 3.61138 30.0121 3.61138 30.0171 3.61138C30.0474 3.61649 30.0827 3.62673 30.113 3.63184C30.7334 3.72903 31.3437 3.88248 31.9339 4.09731C32.0751 4.14846 32.2113 4.19962 32.3475 4.25588C32.3626 4.261 32.3778 4.27123 32.3929 4.27634C32.408 4.28146 32.4484 4.30192 32.4635 4.30703C32.5392 4.34284 32.6148 4.37864 32.6905 4.41445C32.9729 4.54744 33.2453 4.69578 33.5127 4.85946C33.7699 5.01291 34.0171 5.1766 34.2541 5.35563C34.3096 5.39655 34.3651 5.43747 34.4206 5.47839C34.4408 5.49885 34.4609 5.50908 34.4811 5.52954C34.6022 5.62673 34.7182 5.72391 34.8292 5.82621C35.273 6.21496 35.6766 6.64463 36.0448 7.1101C36.075 7.14591 36.1154 7.18171 36.1406 7.22775C36.1406 7.23286 36.1507 7.24309 36.1557 7.25332C36.1759 7.2789 36.1961 7.30447 36.2163 7.33517C36.3071 7.45793 36.3979 7.5858 36.4836 7.71368C36.64 7.95409 36.7963 8.20473 36.9325 8.46049C37.0939 8.74693 37.2352 9.03849 37.3663 9.34028C37.3764 9.36586 37.3915 9.39143 37.4016 9.42212C37.4117 9.43747 37.4117 9.4477 37.4168 9.45793C37.442 9.52954 37.4722 9.60115 37.4975 9.67276C37.558 9.82621 37.6135 9.97967 37.6589 10.1331C37.7648 10.4503 37.8505 10.7776 37.9212 11.105C37.9565 11.2636 37.9867 11.4221 38.012 11.5858C38.017 11.6114 38.022 11.637 38.022 11.6676C37.5832 11.8876 37.1545 12.1382 36.7459 12.4093C35.1873 13.4579 33.8758 14.8185 33.1445 16.5832C33.1041 16.6855 33.0637 16.7981 33.1041 16.8953C33.1545 17.0334 33.3361 17.0794 33.4723 17.0334C33.6085 16.9822 33.7144 16.8697 33.8103 16.7623C35.6362 14.7623 37.9111 13.105 40.5188 12.4349C42.0119 12.0513 43.6159 12.0052 45.0736 12.5065C48.4784 13.6779 50.2993 17.4426 50.1278 20.926V20.9311Z" fill="#FAF0E6"/>
<path d="M37.1797 32.6088C34.7283 32.8748 34.5114 33.0948 34.2491 35.5807C33.9868 33.0948 33.7699 32.8748 31.3185 32.6088C33.7699 32.3428 33.9868 32.1229 34.2491 29.637C34.5114 32.1229 34.7283 32.3428 37.1797 32.6088Z" fill="#396039"/>
<path d="M48.1252 25.2839C48.1252 25.2839 48.1101 25.3094 48.1 25.3299C48.095 25.3401 48.0899 25.3452 48.0849 25.3554C48.0849 25.3554 48.0799 25.3656 48.0748 25.3656C48.0748 25.3656 48.0698 25.3707 48.0648 25.3758C48.0648 25.3758 48.0597 25.3809 48.0547 25.386C48.1 25.3146 48.1252 25.2839 48.1302 25.2788L48.1252 25.2839Z" fill="#FAF0E6"/>
<path d="M41.7444 28.1276H41.7343C41.7092 28.1276 41.689 28.1175 41.6638 28.1175C41.6286 28.1074 41.6236 28.0973 41.7494 28.1276H41.7444Z" fill="#FAF0E6"/>
<path d="M49.4821 18.936C49.467 18.8901 49.457 18.885 49.4972 19.028C49.4972 19.028 49.4972 19.028 49.4972 19.0228C49.4922 18.9922 49.4821 18.9667 49.4821 18.936Z" fill="#FAF0E6"/>
<path d="M45.2147 12.7005C45.1291 12.6803 45.104 12.6702 45.114 12.6702C45.1442 12.6803 45.1795 12.6904 45.2097 12.7005H45.2147Z" fill="#FAF0E6"/>
<path d="M45.3055 27.5603C45.3055 27.5603 45.3005 27.5603 45.2954 27.5654C45.2954 27.5654 45.2904 27.5654 45.2854 27.5704C45.2854 27.5704 45.2803 27.5704 45.2753 27.5755C45.2552 27.5856 45.23 27.6007 45.2098 27.6058C45.2652 27.5755 45.2904 27.5603 45.3005 27.5603H45.3055Z" fill="#FAF0E6"/>
<path d="M49.023 23.6931C49.023 23.6931 49.0079 23.7391 48.9979 23.7646C48.9979 23.7748 48.9878 23.785 48.9878 23.7952C48.9878 23.7952 48.9878 23.8003 48.9878 23.8055C49.013 23.734 49.023 23.7033 49.0331 23.6931H49.023Z" fill="#FAF0E6"/>
</svg>
